<svg width="20" height="20" xmlns="http://www.w3.org/2000/svg" viewBox="0 0 20 15"><path fill="#fff" stroke="#fff" stroke-width=".2" opacity=".741" d="M12.9 0h4.4l1.9 1.1q.94.76.6 2.8-1.08 2.52-3.1 4.1-2.32 1.98-5.4 3.2l-2.6.8-2 .2-1.9-.9-.4-1.4q.68-2.32 2.5-3.5 2.3-2.04 6.3-2.2.26.66-.7.4-3.02.68-4.7 2.7-.6.6-.6 1.8l.7.9 2 .2q4.86-.84 7.3-4.1l.4-.9-2 .7-.2.9q-.74.3-.6-.3-.14-.44-.9-.3l-1.2.6-.1-.6 1.4-.9q-.54-.22-.4-.9l1.5.2 1.6-1.2.1.5-.4.6 1.5.3q.72-.78.5-2.5l-.7-1.1-1.2-.6h-3Q6.82 2.22 3.2 6.9L1.6 9.5l-.4 1.4v1.2l.9 1.5 2.4.8h1.8l.2-.2 2.2-.2 2.4-.8 3.1-1.6-.3.6-5.2 2.4-1.6.4H2.7q-1.68-.42-2.5-1.7l-.2-.4v-2.8q1.34-3.36 3.9-5.5 3.5-3.3 9-4.6Z"/></svg>