<svg xmlns="http://www.w3.org/2000/svg" width="20" height="20" fill="#fff" stroke="#fff" stroke-width="0" viewBox="0 0 1.8 1.8"><path fill="none" stroke="none" d="M0 0h1.8v1.8H0z"/><path stroke="none" d="M1.125 1.575h-.15v-.15h.15zm-.15-.525h-.15v.375h.15zm.6-.15h-.15v.3h.15zm-.15-.15h-.15V.9h.15zm-.9.15h-.15v.15h.15zM.375.75h-.15V.9h.15zM.9.375h.15v-.15H.9zM.338.338v.225h.225V.338zm.337.337h-.45v-.45h.45zm-.338.563v.225h.225v-.225zm.338.338h-.45v-.45h.45zM1.237.338v.225h.225V.338zm.338.337h-.45v-.45h.45zm-.15.75V1.2h-.3v.15h.15v.225h.3v-.15zM1.275.9h-.3v.15h.3zm-.3-.15h-.45V.9h.15v.15h.15V.9h.15zM1.05.675v-.15H.9v-.15H.75v.3zM.506.394H.394v.112h.112zm0 .9H.394v.112h.112zm.9-.9h-.112v.112h.112z"/></svg>