<svg stroke="#fff" fill="#fff" stroke-width="0" viewBox="0 0 2.4 2.4" height="20" width="20" xmlns="http://www.w3.org/2000/svg"><path fill="none" d="M0 0h2.4v2.4H0z" stroke="none"/><path d="M1.5 2.1h-.2v-.2h.2zm-.2-.7h-.2v.5h.2zm.8-.2h-.2v.4h.2zM1.9 1h-.2v.2h.2zm-1.2.2H.5v.2h.2zM.5 1H.3v.2h.2zm.7-.5h.2V.3h-.2zM.45.45v.3h.3v-.3zM.9.9H.3V.3h.6zm-.45.75v.3h.3v-.3zm.45.45H.3v-.6h.6zM1.65.45v.3h.3v-.3zM2.1.9h-.6V.3h.6zm-.2 1v-.3h-.4v.2h.2v.3h.4v-.2zm-.2-.7h-.4v.2h.4zM1.3 1H.7v.2h.2v.2h.2v-.2h.2zm.1-.1V.7h-.2V.5H1v.4zM.675.525h-.15v.15h.15zm0 1.2h-.15v.15h.15zm1.2-1.2h-.15v.15h.15z" stroke="none"/></svg>